<svg width="136" height="42" viewBox="0 0 136 42" fill="none" xmlns="http://www.w3.org/2000/svg">
<path d="M13.7706 1.42208C12.4563 2.65888 12.1277 4.59997 12.1277 5.41592C12.6754 5.41592 14.1244 5.1067 15.5398 3.86984C16.9552 2.63298 17.4775 0.777867 17.5618 0.00491857C16.8457 -0.0380259 15.0849 0.185285 13.7706 1.42208Z" fill="#3177F2"/>
<path d="M6.42853 4.88442C6.48171 6.70708 7.70298 8.23349 8.30697 8.76887C8.66628 8.34756 9.38817 7.02982 9.40128 5.12934C9.41438 3.22887 8.38389 1.60979 7.867 1.03781C7.36535 1.56057 6.37534 3.06177 6.42853 4.88442Z" fill="#3177F2"/>
<path d="M2.90947 11.3707C3.28099 13.1544 4.74995 14.434 5.43799 14.8508C5.71775 14.3709 6.19728 12.9429 5.87736 11.0707C5.55744 9.19838 4.25997 7.79291 3.65122 7.32421C3.24917 7.92987 2.53796 9.5871 2.90947 11.3707Z" fill="#3177F2"/>
<path d="M1.71775 19.8055C2.61699 21.3821 4.4043 22.1308 5.18554 22.3081C5.30427 21.7631 5.42582 19.9784 4.54844 18.3011C3.67106 16.6238 1.90467 15.9763 1.18286 15.7245C0.986474 16.4279 0.818512 18.2288 1.71775 19.8055Z" fill="#3177F2"/>
<path d="M2.4907 27.6593C3.73143 28.9727 5.64197 29.2665 6.44215 29.2492C6.43056 28.6911 6.13297 26.9281 4.89005 25.5117C3.64712 24.0953 1.78046 23.8947 1.02066 23.8252C0.993702 24.556 1.24997 26.3459 2.4907 27.6593Z" fill="#3177F2"/>
<path d="M11.35 26.9238C10.273 28.3796 8.41098 28.9053 7.61457 28.9862C7.56028 28.4307 7.64789 26.6441 8.71484 25.0857C9.78179 23.5273 11.6113 23.0995 12.3574 22.9374C12.4703 23.6596 12.4269 25.4679 11.35 26.9238Z" fill="#3177F2"/>
<path d="M8.84031 31.6143C10.5322 32.2057 11.6007 33.8469 11.9235 34.5936C11.4224 34.8187 9.72932 35.2887 7.94487 34.7387C6.16042 34.1888 5.19333 32.5488 4.81048 31.8761C5.44879 31.5424 7.14839 31.0229 8.84031 31.6143Z" fill="#3177F2"/>
<path d="M15.4535 30.3095C15.1369 32.1042 13.7079 33.43 13.033 33.8685C12.7386 33.3978 12.026 31.7631 12.2883 29.8815C12.5506 27.9999 13.9939 26.7765 14.5879 26.2886C15.0084 26.8812 15.7701 28.5149 15.4535 30.3095Z" fill="#3177F2"/>
<path d="M13.6277 36.4487C15.4157 36.493 16.9196 37.7298 17.448 38.3426C17.0367 38.7112 15.5611 39.6793 13.6971 39.703C11.833 39.7266 10.4262 38.4598 9.8624 37.936C10.3725 37.4217 11.8396 36.4043 13.6277 36.4487Z" fill="#3177F2"/>
<path d="M19.8457 33.2796C20.0104 35.0953 18.9803 36.7618 18.4446 37.3681C18.0377 36.9945 16.923 35.6129 16.6833 33.7282C16.4436 31.8435 17.5142 30.2718 17.959 29.6399C18.5193 30.0966 19.6811 31.4639 19.8457 33.2796Z" fill="#3177F2"/>
<path d="M13.2977 10.6093C15.0595 10.2947 16.3665 8.84397 16.7997 8.15793C16.3393 7.85571 14.9567 7.31597 13.1099 7.5748C11.2631 7.83363 9.83881 9.10513 9.35754 9.70853C9.93684 10.1399 11.5359 10.9238 13.2977 10.6093Z" fill="#3177F2"/>
<path d="M10.3457 15.7853C12.0385 15.1965 13.1095 13.557 13.4334 12.8109C12.9326 12.585 11.4847 12.2699 9.69945 12.8171C7.91418 13.3642 6.70014 14.8451 6.31628 15.5172C6.9541 15.8519 8.65292 16.3741 10.3457 15.7853Z" fill="#3177F2"/>
<path d="M10.5682 21.3586C11.9504 20.2013 12.3884 18.2828 12.4346 17.4682C11.8879 17.436 10.0778 17.5355 8.59474 18.6869C7.11165 19.8384 6.83097 21.7835 6.70307 22.5502C7.41555 22.6352 9.18606 22.516 10.5682 21.3586Z" fill="#3177F2"/>
<path d="M38.3887 5.69052V6.72652H35.7287V15.4485H34.4547V6.72652H31.7807V5.69052H38.3887ZM41.2309 9.02252C41.4549 8.58385 41.7722 8.24318 42.1829 8.00052C42.6029 7.75785 43.1116 7.63652 43.7089 7.63652V8.95252H43.3729C41.9449 8.95252 41.2309 9.72718 41.2309 11.2765V15.4485H39.9569V7.77652H41.2309V9.02252ZM51.9836 7.77652V15.4485H50.7096V14.3145C50.4669 14.7065 50.1262 15.0145 49.6876 15.2385C49.2582 15.4532 48.7822 15.5605 48.2596 15.5605C47.6622 15.5605 47.1256 15.4392 46.6496 15.1965C46.1736 14.9445 45.7956 14.5712 45.5156 14.0765C45.2449 13.5819 45.1096 12.9799 45.1096 12.2705V7.77652H46.3696V12.1025C46.3696 12.8585 46.5609 13.4419 46.9436 13.8525C47.3262 14.2539 47.8489 14.4545 48.5116 14.4545C49.1929 14.4545 49.7296 14.2445 50.1216 13.8245C50.5136 13.4045 50.7096 12.7932 50.7096 11.9905V7.77652H51.9836ZM56.8506 15.5745C56.2626 15.5745 55.7353 15.4765 55.2686 15.2805C54.802 15.0752 54.4333 14.7952 54.1626 14.4405C53.892 14.0765 53.7426 13.6612 53.7146 13.1945H55.0306C55.068 13.5772 55.2453 13.8899 55.5626 14.1325C55.8893 14.3752 56.314 14.4965 56.8366 14.4965C57.322 14.4965 57.7046 14.3892 57.9846 14.1745C58.2646 13.9599 58.4046 13.6892 58.4046 13.3625C58.4046 13.0265 58.2553 12.7792 57.9566 12.6205C57.658 12.4525 57.196 12.2892 56.5706 12.1305C56.0013 11.9812 55.5346 11.8318 55.1706 11.6825C54.816 11.5238 54.508 11.2952 54.2466 10.9965C53.9946 10.6885 53.8686 10.2872 53.8686 9.79252C53.8686 9.40052 53.9853 9.04118 54.2186 8.71452C54.452 8.38785 54.7833 8.13118 55.2126 7.94452C55.642 7.74852 56.132 7.65052 56.6826 7.65052C57.532 7.65052 58.218 7.86518 58.7406 8.29452C59.2633 8.72385 59.5433 9.31185 59.5806 10.0585H58.3066C58.2786 9.65718 58.1153 9.33518 57.8166 9.09252C57.5273 8.84985 57.1353 8.72852 56.6406 8.72852C56.1833 8.72852 55.8193 8.82652 55.5486 9.02252C55.278 9.21852 55.1426 9.47518 55.1426 9.79252C55.1426 10.0445 55.222 10.2545 55.3806 10.4225C55.5486 10.5812 55.754 10.7118 55.9966 10.8145C56.2486 10.9078 56.594 11.0152 57.0326 11.1365C57.5833 11.2858 58.0313 11.4352 58.3766 11.5845C58.722 11.7245 59.016 11.9392 59.2586 12.2285C59.5106 12.5179 59.6413 12.8959 59.6506 13.3625C59.6506 13.7825 59.534 14.1605 59.3006 14.4965C59.0673 14.8325 58.736 15.0985 58.3066 15.2945C57.8866 15.4812 57.4013 15.5745 56.8506 15.5745ZM63.0031 8.82652V13.3485C63.0031 13.7219 63.0824 13.9879 63.2411 14.1465C63.3998 14.2959 63.6751 14.3705 64.0671 14.3705H65.0051V15.4485H63.8571C63.1478 15.4485 62.6158 15.2852 62.2611 14.9585C61.9064 14.6319 61.7291 14.0952 61.7291 13.3485V8.82652H60.7351V7.77652H61.7291V5.84452H63.0031V7.77652H65.0051V8.82652H63.0031ZM73.5487 11.3185C73.5487 11.5612 73.5347 11.8178 73.5067 12.0885H67.3747C67.4214 12.8445 67.678 13.4372 68.1447 13.8665C68.6207 14.2865 69.1947 14.4965 69.8667 14.4965C70.4174 14.4965 70.8747 14.3705 71.2387 14.1185C71.612 13.8572 71.8734 13.5119 72.0227 13.0825H73.3947C73.1894 13.8199 72.7787 14.4219 72.1627 14.8885C71.5467 15.3459 70.7814 15.5745 69.8667 15.5745C69.1387 15.5745 68.4854 15.4112 67.9067 15.0845C67.3374 14.7579 66.8894 14.2959 66.5627 13.6985C66.236 13.0919 66.0727 12.3919 66.0727 11.5985C66.0727 10.8052 66.2314 10.1098 66.5487 9.51252C66.866 8.91518 67.3094 8.45785 67.8787 8.14052C68.4574 7.81385 69.12 7.65052 69.8667 7.65052C70.5947 7.65052 71.2387 7.80918 71.7987 8.12652C72.3587 8.44385 72.788 8.88252 73.0867 9.44252C73.3947 9.99318 73.5487 10.6185 73.5487 11.3185ZM72.2327 11.0525C72.2327 10.5672 72.1254 10.1518 71.9107 9.80652C71.696 9.45185 71.402 9.18585 71.0287 9.00852C70.6647 8.82185 70.2587 8.72852 69.8107 8.72852C69.1667 8.72852 68.616 8.93385 68.1587 9.34452C67.7107 9.75518 67.454 10.3245 67.3887 11.0525H72.2327ZM74.7543 11.5845C74.7543 10.8005 74.913 10.1145 75.2303 9.52652C75.5477 8.92918 75.9817 8.46718 76.5323 8.14052C77.0923 7.81385 77.7177 7.65052 78.4083 7.65052C79.0057 7.65052 79.561 7.79052 80.0743 8.07052C80.5877 8.34118 80.9797 8.70052 81.2503 9.14852V5.08852H82.5383V15.4485H81.2503V14.0065C80.9983 14.4639 80.625 14.8419 80.1303 15.1405C79.6357 15.4299 79.057 15.5745 78.3943 15.5745C77.713 15.5745 77.0923 15.4065 76.5323 15.0705C75.9817 14.7345 75.5477 14.2632 75.2303 13.6565C74.913 13.0499 74.7543 12.3592 74.7543 11.5845ZM81.2503 11.5985C81.2503 11.0199 81.1337 10.5158 80.9003 10.0865C80.667 9.65718 80.3497 9.33052 79.9483 9.10652C79.5563 8.87318 79.1223 8.75652 78.6463 8.75652C78.1703 8.75652 77.7363 8.86852 77.3443 9.09252C76.9523 9.31652 76.6397 9.64318 76.4063 10.0725C76.173 10.5018 76.0563 11.0058 76.0563 11.5845C76.0563 12.1725 76.173 12.6859 76.4063 13.1245C76.6397 13.5539 76.9523 13.8852 77.3443 14.1185C77.7363 14.3425 78.1703 14.4545 78.6463 14.4545C79.1223 14.4545 79.5563 14.3425 79.9483 14.1185C80.3497 13.8852 80.667 13.5539 80.9003 13.1245C81.1337 12.6859 81.2503 12.1772 81.2503 11.5985ZM89.6977 9.20452C89.959 8.74718 90.3417 8.37385 90.8457 8.08452C91.3497 7.79518 91.9237 7.65052 92.5677 7.65052C93.2584 7.65052 93.879 7.81385 94.4297 8.14052C94.9804 8.46718 95.4144 8.92918 95.7317 9.52652C96.049 10.1145 96.2077 10.8005 96.2077 11.5845C96.2077 12.3592 96.049 13.0499 95.7317 13.6565C95.4144 14.2632 94.9757 14.7345 94.4157 15.0705C93.865 15.4065 93.249 15.5745 92.5677 15.5745C91.905 15.5745 91.3217 15.4299 90.8177 15.1405C90.323 14.8512 89.9497 14.4825 89.6977 14.0345V15.4485H88.4237V5.08852H89.6977V9.20452ZM94.9057 11.5845C94.9057 11.0058 94.789 10.5018 94.5557 10.0725C94.3224 9.64318 94.005 9.31652 93.6037 9.09252C93.2117 8.86852 92.7777 8.75652 92.3017 8.75652C91.835 8.75652 91.401 8.87318 90.9997 9.10652C90.6077 9.33052 90.2904 9.66185 90.0477 10.1005C89.8144 10.5298 89.6977 11.0292 89.6977 11.5985C89.6977 12.1772 89.8144 12.6859 90.0477 13.1245C90.2904 13.5539 90.6077 13.8852 90.9997 14.1185C91.401 14.3425 91.835 14.4545 92.3017 14.4545C92.7777 14.4545 93.2117 14.3425 93.6037 14.1185C94.005 13.8852 94.3224 13.5539 94.5557 13.1245C94.789 12.6859 94.9057 12.1725 94.9057 11.5845ZM104.493 7.77652L99.8726 19.0605H98.5566L100.069 15.3645L96.9746 7.77652H98.3886L100.797 13.9925L103.177 7.77652H104.493Z" fill="#3177F2"/>
<path d="M32.6992 28.8684L31.2568 28.5198L31.8105 23.4954H37.2861V24.9925H33.3076L33.0479 27.3167C33.1891 27.2301 33.3942 27.1435 33.6631 27.0569C33.9365 26.9658 34.2441 26.9202 34.5859 26.9202C35.0599 26.9202 35.4837 26.9977 35.8574 27.1526C36.2311 27.303 36.5479 27.5218 36.8076 27.8089C37.0719 28.096 37.2702 28.4469 37.4023 28.8616C37.5391 29.2718 37.6074 29.7366 37.6074 30.2561C37.6074 30.7119 37.5391 31.1402 37.4023 31.5413C37.2702 31.9378 37.0674 32.291 36.7939 32.6009C36.5205 32.9062 36.1764 33.1477 35.7617 33.3255C35.347 33.4986 34.8594 33.5852 34.2988 33.5852C33.875 33.5852 33.4671 33.5237 33.0752 33.4007C32.6878 33.2731 32.3392 33.0885 32.0293 32.847C31.7194 32.6009 31.471 32.3001 31.2842 31.9446C31.1019 31.5891 31.0016 31.1813 30.9834 30.721H32.7676C32.7995 31.0263 32.8815 31.2861 33.0137 31.5003C33.1458 31.7145 33.319 31.8785 33.5332 31.9925C33.752 32.1064 34.0049 32.1634 34.292 32.1634C34.5518 32.1634 34.7751 32.1155 34.9619 32.0198C35.1533 31.9195 35.3105 31.7805 35.4336 31.6028C35.5566 31.4251 35.6478 31.2154 35.707 30.9739C35.7663 30.7324 35.7959 30.468 35.7959 30.1809C35.7959 29.9029 35.7617 29.65 35.6934 29.4221C35.625 29.1897 35.5202 28.9892 35.3789 28.8206C35.2376 28.652 35.0599 28.5221 34.8457 28.4309C34.6361 28.3398 34.39 28.2942 34.1074 28.2942C33.7292 28.2942 33.4375 28.3512 33.2324 28.4651C33.0319 28.5791 32.8542 28.7135 32.6992 28.8684ZM45.4961 27.6175V29.2923C45.4961 30.0579 45.4186 30.7119 45.2637 31.2542C45.1087 31.7965 44.8854 32.2408 44.5938 32.5872C44.3021 32.929 43.9535 33.1819 43.5479 33.346C43.1423 33.5055 42.6911 33.5852 42.1943 33.5852C41.7979 33.5852 41.4287 33.5351 41.0869 33.4348C40.7451 33.33 40.4375 33.1705 40.1641 32.9563C39.8952 32.7376 39.6628 32.4596 39.4668 32.1223C39.2754 31.7851 39.1273 31.3818 39.0225 30.9124C38.9222 30.443 38.8721 29.9029 38.8721 29.2923V27.6175C38.8721 26.8518 38.9495 26.2001 39.1045 25.6624C39.264 25.1246 39.4896 24.6848 39.7812 24.343C40.0729 24.0013 40.4215 23.7529 40.8271 23.5979C41.2327 23.4384 41.6839 23.3587 42.1807 23.3587C42.5817 23.3587 42.9508 23.4088 43.2881 23.5091C43.6299 23.6093 43.9352 23.7666 44.2041 23.9807C44.4775 24.1904 44.71 24.4638 44.9014 24.8011C45.0928 25.1337 45.2386 25.5348 45.3389 26.0042C45.4437 26.469 45.4961 27.0068 45.4961 27.6175ZM43.6914 29.5384V27.3645C43.6914 26.9817 43.6686 26.649 43.623 26.3665C43.582 26.0794 43.5205 25.8356 43.4385 25.635C43.3564 25.4345 43.2539 25.2727 43.1309 25.1497C43.0078 25.0221 42.8665 24.9287 42.707 24.8694C42.5475 24.8102 42.3721 24.7805 42.1807 24.7805C41.9437 24.7805 41.7318 24.8284 41.5449 24.9241C41.3581 25.0152 41.2008 25.1611 41.0732 25.3616C40.9456 25.5621 40.8477 25.8287 40.7793 26.1614C40.7155 26.4895 40.6836 26.8906 40.6836 27.3645V29.5384C40.6836 29.9212 40.7041 30.2561 40.7451 30.5432C40.7907 30.8304 40.8545 31.0764 40.9365 31.2815C41.0231 31.4866 41.1257 31.6552 41.2441 31.7874C41.3672 31.915 41.5085 32.0107 41.668 32.0745C41.8275 32.1337 42.0029 32.1634 42.1943 32.1634C42.4359 32.1634 42.6478 32.1155 42.8301 32.0198C43.0169 31.9241 43.1742 31.7737 43.3018 31.5686C43.4294 31.359 43.5251 31.0878 43.5889 30.7552C43.6572 30.4179 43.6914 30.0123 43.6914 29.5384ZM47.957 23.4954H49.584L52.3047 30.9876L55.0186 23.4954H56.6523L52.9541 33.4485H51.6484L47.957 23.4954ZM47.1367 23.4954H48.7295L49.0166 30.3792V33.4485H47.1367V23.4954ZM55.873 23.4954H57.4727V33.4485H55.5928V30.3792L55.873 23.4954ZM65.6758 27.9456V29.552H58.8535V27.9456H65.6758ZM63.1328 25.2044V32.4505H61.4033V25.2044H63.1328ZM76.1074 23.4954H77.9873V30.1057C77.9873 30.8668 77.8232 31.5071 77.4951 32.0266C77.167 32.5416 76.7204 32.9313 76.1553 33.1956C75.5902 33.4554 74.9476 33.5852 74.2275 33.5852C73.4984 33.5852 72.849 33.4554 72.2793 33.1956C71.7096 32.9313 71.263 32.5416 70.9395 32.0266C70.6159 31.5071 70.4541 30.8668 70.4541 30.1057V23.4954H72.334V30.1057C72.334 30.5706 72.4115 30.9511 72.5664 31.2473C72.7214 31.539 72.9401 31.7555 73.2227 31.8968C73.5052 32.038 73.8402 32.1087 74.2275 32.1087C74.6195 32.1087 74.9544 32.038 75.2324 31.8968C75.515 31.7555 75.7314 31.539 75.8818 31.2473C76.0322 30.9511 76.1074 30.5706 76.1074 30.1057V23.4954ZM83.7021 31.4251C83.7021 31.2701 83.6611 31.1311 83.5791 31.0081C83.4971 30.885 83.3421 30.7734 83.1143 30.6731C82.891 30.5683 82.5628 30.4703 82.1299 30.3792C81.7471 30.2971 81.3939 30.1946 81.0703 30.0716C80.7467 29.9485 80.4688 29.8004 80.2363 29.6272C80.0039 29.4495 79.8216 29.2421 79.6895 29.0052C79.5618 28.7636 79.498 28.4856 79.498 28.1712C79.498 27.8658 79.5641 27.5787 79.6963 27.3098C79.8285 27.0364 80.0199 26.7971 80.2705 26.5921C80.5212 26.3824 80.8265 26.2184 81.1865 26.0999C81.5465 25.9768 81.9521 25.9153 82.4033 25.9153C83.0322 25.9153 83.5723 26.0179 84.0234 26.2229C84.4792 26.428 84.8278 26.7106 85.0693 27.0706C85.3109 27.4261 85.4316 27.8271 85.4316 28.2737H83.627C83.627 28.0777 83.5814 27.9 83.4902 27.7405C83.4036 27.581 83.2692 27.4534 83.0869 27.3577C82.9046 27.2574 82.6745 27.2073 82.3965 27.2073C82.1458 27.2073 81.9339 27.2483 81.7607 27.3304C81.5921 27.4124 81.4645 27.5195 81.3779 27.6516C81.2913 27.7838 81.248 27.9296 81.248 28.0891C81.248 28.2076 81.2708 28.3147 81.3164 28.4104C81.3665 28.5016 81.4463 28.5859 81.5557 28.6634C81.665 28.7408 81.8132 28.8115 82 28.8753C82.1914 28.9391 82.4261 29.0006 82.7041 29.0598C83.2555 29.1692 83.7363 29.3151 84.1465 29.4973C84.5612 29.6751 84.8848 29.9121 85.1172 30.2083C85.3496 30.5045 85.4658 30.8828 85.4658 31.343C85.4658 31.6712 85.3952 31.972 85.2539 32.2454C85.1126 32.5143 84.9076 32.749 84.6387 32.9495C84.3698 33.15 84.0485 33.3072 83.6748 33.4212C83.3011 33.5305 82.8796 33.5852 82.4102 33.5852C81.7311 33.5852 81.1569 33.4645 80.6875 33.2229C80.2181 32.9768 79.8626 32.6669 79.6211 32.2932C79.3796 31.915 79.2588 31.5231 79.2588 31.1175H80.9883C81.002 31.4046 81.0794 31.6347 81.2207 31.8079C81.362 31.9811 81.5397 32.1064 81.7539 32.1839C81.9727 32.2568 82.2028 32.2932 82.4443 32.2932C82.7178 32.2932 82.9479 32.2568 83.1348 32.1839C83.3216 32.1064 83.4629 32.0039 83.5586 31.8763C83.6543 31.7441 83.7021 31.5937 83.7021 31.4251ZM90.1621 33.5852C89.6016 33.5852 89.098 33.4941 88.6514 33.3118C88.2048 33.1295 87.8242 32.8766 87.5098 32.553C87.1999 32.2249 86.9606 31.8444 86.792 31.4114C86.6279 30.9739 86.5459 30.5045 86.5459 30.0032V29.7298C86.5459 29.1601 86.6279 28.6429 86.792 28.178C86.9561 27.7086 87.1885 27.3053 87.4893 26.968C87.79 26.6308 88.1501 26.371 88.5693 26.1888C88.9886 26.0065 89.4512 25.9153 89.957 25.9153C90.4811 25.9153 90.9437 26.0042 91.3447 26.1819C91.7458 26.3551 92.0807 26.6012 92.3496 26.9202C92.6185 27.2392 92.8213 27.622 92.958 28.0686C93.0947 28.5107 93.1631 29.0006 93.1631 29.5384V30.2971H87.3662V29.053H91.3857V28.9163C91.3766 28.6292 91.3219 28.3671 91.2217 28.1302C91.1214 27.8886 90.9665 27.6972 90.7568 27.5559C90.5472 27.4101 90.276 27.3372 89.9434 27.3372C89.6745 27.3372 89.4398 27.3964 89.2393 27.5149C89.0433 27.6289 88.8792 27.7929 88.7471 28.0071C88.6195 28.2167 88.5238 28.4674 88.46 28.7591C88.3962 29.0507 88.3643 29.3743 88.3643 29.7298V30.0032C88.3643 30.3131 88.4053 30.6002 88.4873 30.8645C88.5739 31.1289 88.6992 31.359 88.8633 31.555C89.0319 31.7464 89.2324 31.8968 89.4648 32.0061C89.7018 32.111 89.9707 32.1634 90.2715 32.1634C90.6497 32.1634 90.9915 32.0904 91.2969 31.9446C91.6068 31.7942 91.8757 31.5732 92.1035 31.2815L93.0127 32.2249C92.8577 32.4527 92.6481 32.6715 92.3838 32.8811C92.124 33.0908 91.8096 33.2617 91.4404 33.3938C91.0713 33.5214 90.6452 33.5852 90.1621 33.5852ZM96.1777 27.5628V33.4485H94.373V26.052H96.082L96.1777 27.5628ZM98.4268 26.0042L98.3994 27.6858C98.2992 27.6676 98.1852 27.6539 98.0576 27.6448C97.9346 27.6357 97.8184 27.6311 97.709 27.6311C97.431 27.6311 97.1872 27.6699 96.9775 27.7473C96.7679 27.8203 96.5924 27.9274 96.4512 28.0686C96.3145 28.2099 96.2096 28.3831 96.1367 28.5882C96.0638 28.7887 96.0228 29.0166 96.0137 29.2718L95.624 29.2239C95.624 28.7545 95.6719 28.3193 95.7676 27.9182C95.8633 27.5172 96.0023 27.1663 96.1846 26.8655C96.3669 26.5647 96.5947 26.3323 96.8682 26.1682C97.1462 25.9996 97.4652 25.9153 97.8252 25.9153C97.9255 25.9153 98.0326 25.9244 98.1465 25.9427C98.265 25.9563 98.3584 25.9768 98.4268 26.0042ZM103.485 31.4251C103.485 31.2701 103.444 31.1311 103.362 31.0081C103.28 30.885 103.125 30.7734 102.897 30.6731C102.674 30.5683 102.346 30.4703 101.913 30.3792C101.53 30.2971 101.177 30.1946 100.854 30.0716C100.53 29.9485 100.252 29.8004 100.02 29.6272C99.7871 29.4495 99.6048 29.2421 99.4727 29.0052C99.3451 28.7636 99.2812 28.4856 99.2812 28.1712C99.2812 27.8658 99.3473 27.5787 99.4795 27.3098C99.6117 27.0364 99.8031 26.7971 100.054 26.5921C100.304 26.3824 100.61 26.2184 100.97 26.0999C101.33 25.9768 101.735 25.9153 102.187 25.9153C102.815 25.9153 103.355 26.0179 103.807 26.2229C104.262 26.428 104.611 26.7106 104.853 27.0706C105.094 27.4261 105.215 27.8271 105.215 28.2737H103.41C103.41 28.0777 103.365 27.9 103.273 27.7405C103.187 27.581 103.052 27.4534 102.87 27.3577C102.688 27.2574 102.458 27.2073 102.18 27.2073C101.929 27.2073 101.717 27.2483 101.544 27.3304C101.375 27.4124 101.248 27.5195 101.161 27.6516C101.075 27.7838 101.031 27.9296 101.031 28.0891C101.031 28.2076 101.054 28.3147 101.1 28.4104C101.15 28.5016 101.229 28.5859 101.339 28.6634C101.448 28.7408 101.596 28.8115 101.783 28.8753C101.975 28.9391 102.209 29.0006 102.487 29.0598C103.039 29.1692 103.52 29.3151 103.93 29.4973C104.344 29.6751 104.668 29.9121 104.9 30.2083C105.133 30.5045 105.249 30.8828 105.249 31.343C105.249 31.6712 105.178 31.972 105.037 32.2454C104.896 32.5143 104.691 32.749 104.422 32.9495C104.153 33.15 103.832 33.3072 103.458 33.4212C103.084 33.5305 102.663 33.5852 102.193 33.5852C101.514 33.5852 100.94 33.4645 100.471 33.2229C100.001 32.9768 99.6458 32.6669 99.4043 32.2932C99.1628 31.915 99.042 31.5231 99.042 31.1175H100.771C100.785 31.4046 100.863 31.6347 101.004 31.8079C101.145 31.9811 101.323 32.1064 101.537 32.1839C101.756 32.2568 101.986 32.2932 102.228 32.2932C102.501 32.2932 102.731 32.2568 102.918 32.1839C103.105 32.1064 103.246 32.0039 103.342 31.8763C103.438 31.7441 103.485 31.5937 103.485 31.4251Z" fill="#3177F2"/>
<path d="M122.23 1.42202C123.544 2.65882 123.872 4.59991 123.872 5.41586C123.325 5.41586 121.876 5.10664 120.46 3.86978C119.045 2.63292 118.523 0.777806 118.438 0.00485754C119.155 -0.0380869 120.915 0.185224 122.23 1.42202Z" fill="#3177F2"/>
<path d="M129.572 4.88314C129.518 6.7058 128.297 8.23221 127.693 8.76759C127.334 8.34628 126.612 7.02854 126.599 5.12806C126.586 3.22758 127.616 1.6085 128.133 1.03652C128.635 1.55929 129.625 3.06048 129.572 4.88314Z" fill="#3177F2"/>
<path d="M133.09 11.3707C132.719 13.1544 131.25 14.4339 130.562 14.8508C130.282 14.3708 129.803 12.9429 130.123 11.0706C130.443 9.19835 131.74 7.79288 132.349 7.32418C132.751 7.92984 133.462 9.58707 133.09 11.3707Z" fill="#3177F2"/>
<path d="M134.282 19.8038C133.383 21.3805 131.596 22.1292 130.815 22.3064C130.696 21.7614 130.574 19.9768 131.452 18.2994C132.329 16.6221 134.095 15.9746 134.817 15.7229C135.014 16.4262 135.182 18.2271 134.282 19.8038Z" fill="#3177F2"/>
<path d="M133.509 27.6593C132.269 28.9727 130.358 29.2665 129.558 29.2492C129.569 28.691 129.867 26.9281 131.11 25.5117C132.353 24.0952 134.219 23.8947 134.979 23.8251C135.006 24.5559 134.75 26.3459 133.509 27.6593Z" fill="#3177F2"/>
<path d="M124.65 26.9238C125.727 28.3796 127.589 28.9053 128.385 28.9862C128.44 28.4307 128.352 26.6441 127.285 25.0857C126.218 23.5273 124.389 23.0995 123.643 22.9374C123.53 23.6596 123.573 25.4679 124.65 26.9238Z" fill="#3177F2"/>
<path d="M127.16 31.6143C125.468 32.2057 124.399 33.8469 124.077 34.5936C124.578 34.8187 126.271 35.2887 128.055 34.7387C129.84 34.1888 130.807 32.5488 131.189 31.8761C130.551 31.5424 128.852 31.0229 127.16 31.6143Z" fill="#3177F2"/>
<path d="M120.55 30.3095C120.866 32.1041 122.295 33.4299 122.97 33.8685C123.265 33.3977 123.977 31.7631 123.715 29.8815C123.453 27.9999 122.009 26.7765 121.415 26.2886C120.995 26.8812 120.233 28.5149 120.55 30.3095Z" fill="#3177F2"/>
<path d="M122.372 36.4486C120.584 36.493 119.08 37.7298 118.552 38.3426C118.963 38.7112 120.439 39.6793 122.303 39.7029C124.167 39.7266 125.574 38.4598 126.138 37.9359C125.628 37.4217 124.16 36.4043 122.372 36.4486Z" fill="#3177F2"/>
<path d="M116.154 33.2796C115.99 35.0953 117.02 36.7618 117.555 37.3681C117.962 36.9944 119.077 35.6129 119.317 33.7282C119.556 31.8434 118.486 30.2717 118.041 29.6399C117.481 30.0966 116.319 31.4639 116.154 33.2796Z" fill="#3177F2"/>
<path d="M122.702 10.6093C120.941 10.2947 119.634 8.84397 119.2 8.15793C119.661 7.85571 121.043 7.31597 122.89 7.5748C124.737 7.83363 126.161 9.10514 126.642 9.70853C126.063 10.1399 124.464 10.9239 122.702 10.6093Z" fill="#3177F2"/>
<path d="M125.654 15.7853C123.962 15.1965 122.891 13.557 122.567 12.8109C123.067 12.585 124.515 12.2699 126.301 12.8171C128.086 13.3642 129.3 14.8451 129.684 15.5172C129.046 15.8519 127.347 16.3741 125.654 15.7853Z" fill="#3177F2"/>
<path d="M125.432 21.3586C124.05 20.2013 123.612 18.2828 123.566 17.4682C124.112 17.4359 125.922 17.5355 127.405 18.6869C128.888 19.8384 129.169 21.7835 129.297 22.5501C128.585 22.6352 126.814 22.5159 125.432 21.3586Z" fill="#3177F2"/>
</svg>
