<svg width="104" height="52" viewBox="0 0 104 52" fill="none" xmlns="http://www.w3.org/2000/svg">
<g clip-path="url(#clip0_30_1628)">
<path d="M99.5788 22.5141L103.721 24.7713L99.5788 27.0466L97.3125 31.1803L95.0462 27.0466L90.9035 24.7713L95.0462 22.5141L97.3125 18.3624L99.5788 22.5141Z" fill="#FF5D17" stroke="white" stroke-width="0.748118" stroke-miterlimit="10"/>
</g>
<g clip-path="url(#clip1_30_1628)">
<path d="M9.81117 22.5141L13.9539 24.7713L9.81117 27.0466L7.54492 31.1803L5.27867 27.0466L1.13596 24.7713L5.27867 22.5141L7.54492 18.3624L9.81117 22.5141Z" fill="#FF5D17" stroke="white" stroke-width="0.748118" stroke-miterlimit="10"/>
</g>
<circle cx="52.4286" cy="26.204" r="25.204" fill="#3177F2"/>
<path d="M44.3809 22.1307H57.1227V17.4935C57.1227 14.9365 55.0169 12.8564 52.4283 12.8564C49.8398 12.8564 47.734 14.9365 47.734 17.4936V20.1434C47.734 20.5091 47.4335 20.8058 47.0633 20.8058H44.3809C44.0107 20.8058 43.7102 20.5091 43.7102 20.1434V17.4936C43.7102 12.7452 47.6213 8.88178 52.4283 8.88178C57.2354 8.88178 61.1465 12.7452 61.1465 17.4936V22.1983C62.6755 22.5056 63.829 23.8451 63.829 25.4429V37.3669C63.8289 39.1926 62.3254 40.6791 60.4758 40.6791H44.3809C42.5313 40.6791 41.0278 39.1926 41.0278 37.3669V25.4429C41.0278 23.6172 42.5313 22.1307 44.3809 22.1307ZM50.9409 32.3721L50.4231 35.948C50.395 36.1387 50.4526 36.3308 50.5801 36.4753C50.7075 36.6197 50.8926 36.7045 51.0871 36.7045H53.7696C53.964 36.7045 54.1491 36.621 54.2766 36.4767C54.404 36.3323 54.4617 36.1388 54.4335 35.9493L53.9157 32.3734C55.0371 31.8196 55.7814 30.6763 55.7814 29.4176C55.7814 27.5919 54.2779 26.1054 52.4283 26.1054C50.5788 26.1054 49.0753 27.5919 49.0753 29.4176C49.0753 30.6762 49.8196 31.8196 50.9409 32.3721Z" fill="white"/>
<defs>
<clipPath id="clip0_30_1628">
<rect width="9.25594" height="9.25594" fill="white" transform="translate(97.3125 18.2355) rotate(45)"/>
</clipPath>
<clipPath id="clip1_30_1628">
<rect width="9.25594" height="9.25594" fill="white" transform="translate(7.54492 18.2355) rotate(45)"/>
</clipPath>
</defs>
</svg>
